<?xml version="1.0" encoding="utf-8" ?><svg xmlns="http://www.w3.org/2000/svg" xmlns:xlink="http://www.w3.org/1999/xlink" width="1280" height="481" viewBox="96 220 1280 481"><path fill="#ED6629" transform="scale(1.20913 1.20913)" d="M192.893 462.246C173.923 423.966 168.244 388.796 182.196 347.426C194.01 312.734 219.17 284.187 252.099 268.113C284.26 252.399 321.333 250.06 355.214 261.607C363.201 264.344 370.317 267.629 377.776 271.565C387.379 270.107 407.022 264.559 415.07 270.418C425.413 277.946 425.026 294.975 436.86 301.309C442.068 304.097 447.974 315.61 448.3 321.33C449.575 331.218 446.244 338.673 441.719 347.064C453.659 388.058 452.185 423.234 431.327 461.36C429.014 465.525 426.532 469.593 423.889 473.557C444.949 473.595 486.523 473.282 507.786 474.011C511.439 474.136 539.285 494.705 545.568 498.62C498.055 499.167 448.497 497.422 401.201 498.862C387.837 508.614 375.599 517.215 360.089 523.283C314.026 541.304 265.41 532.659 226.998 502.395C211.571 488.941 203.386 479.63 192.893 462.246ZM314.751 419.573C328.362 418.304 338.371 406.244 337.111 392.629C335.852 379.013 323.801 368.994 310.188 370.245C296.562 371.497 286.534 383.565 287.795 397.193C289.056 410.821 301.127 420.843 314.751 419.573Z"/><path fill="#F6F7F6" transform="scale(1.20913 1.20913)" d="M300.38 277.579C301.8 277.385 305.124 277.306 306.69 277.228C310.458 286.725 313.988 299.142 317.036 309.009C354.272 309.388 370.341 322.706 390.753 351.962C400.691 355.066 412.357 357.7 422.558 360.051C428.98 385.207 429.242 408.226 420.185 432.808C409.449 462.515 387.183 486.631 358.43 499.694C328.493 513.465 299.641 512.563 269.188 501.346C237.835 489.591 219.096 466.36 205.242 437.061C212.128 434.575 220.066 432.053 224.371 425.638C226.729 422.061 227.513 417.673 226.54 413.501C223.239 398.828 207.999 400.035 196.876 402.824C195.843 384.657 196.881 378.041 200.954 360.312C206.806 362.553 214.126 365.724 220.388 364.448C229.325 362.627 235.111 352.765 233.116 344.008C231.26 335.855 223.129 331.741 216.599 327.733C224.363 315.689 233.887 307.536 244.643 298.416C248.272 303.613 252.315 309.451 258.365 311.915C262.534 313.584 267.2 313.503 271.308 311.689C284.286 305.993 280.727 292.083 276.113 282.128C285.361 279.508 290.811 278.51 300.38 277.579ZM314.751 419.573C328.362 418.304 338.371 406.244 337.111 392.629C335.852 379.013 323.801 368.994 310.188 370.245C296.562 371.497 286.534 383.565 287.795 397.193C289.056 410.821 301.127 420.843 314.751 419.573Z"/><path fill="#ED6629" transform="scale(1.20913 1.20913)" d="M308.09 351.985C331.802 349.629 352.967 366.867 355.465 390.57C357.964 414.274 340.859 435.547 317.177 438.19C293.291 440.855 271.8 423.567 269.28 399.659C266.76 375.752 284.174 354.361 308.09 351.985ZM314.751 419.573C328.362 418.304 338.371 406.244 337.111 392.629C335.852 379.013 323.801 368.994 310.188 370.245C296.562 371.497 286.534 383.565 287.795 397.193C289.056 410.821 301.127 420.843 314.751 419.573Z"/><path fill="#ED6629" transform="scale(1.20913 1.20913)" d="M375.365 434.88C383.666 433.197 391.747 438.604 393.361 446.92C394.976 455.236 389.504 463.274 381.177 464.82C372.946 466.348 365.023 460.953 363.428 452.733C361.832 444.513 367.161 436.544 375.365 434.88Z"/><path fill="#ED6629" transform="scale(1.20913 1.20913)" d="M341.194 462.269C344.872 461.142 348.873 462.089 351.655 464.748C354.437 467.406 355.567 471.36 354.61 475.087C353.652 478.814 350.756 481.734 347.037 482.721C341.437 484.207 335.677 480.936 334.085 475.363C332.492 469.79 335.653 463.968 341.194 462.269Z"/><path fill="#F6F7F6" transform="scale(1.20913 1.20913)" d="M315.803 276.564C328.492 277.916 338.814 278.916 350.699 283.729C385.227 297.71 404.838 318.027 419.616 351.439C412.455 350.116 403.555 347.626 396.365 345.822C393.342 340.142 387.946 333.182 383.53 328.529C367.994 311.866 346.394 302.177 323.621 301.658C321.215 293.082 318.575 285.018 315.803 276.564Z"/><path fill="#F6F7F6" transform="scale(1.20913 1.20913)" d="M419.986 477.343C442.455 476.323 472.52 477.277 495.336 477.342C503.252 482.856 511.092 488.479 518.853 494.209C495.708 495.145 468.286 494.458 444.823 494.449C437.05 490.016 427.364 482.724 419.986 477.343Z"/><path fill="#F6F7F6" transform="scale(1.20913 1.20913)" d="M422.165 301.735C424.282 304.556 427.092 305.613 430.076 307.578C436.037 313.068 437.237 315.271 439.178 323.161L439.556 326.823C438.935 333.169 437.693 336.915 434.498 342.561C432.285 338.377 430.161 334.147 428.128 329.873L423.974 321.894C421.931 318.823 419.579 314.761 417.615 311.559L413.65 305.792C417.42 305.002 419.912 304.909 422.165 301.735Z"/><path fill="#F6F7F6" transform="scale(1.20913 1.20913)" d="M439.556 326.823C438.935 333.169 437.693 336.915 434.498 342.561C432.285 338.377 430.161 334.147 428.128 329.873C432.858 328.927 434.919 328.425 439.556 326.823Z"/><path fill="#F6F7F6" transform="scale(1.20913 1.20913)" d="M423.974 321.894C433.413 321.35 432.64 322.699 439.178 323.161L439.556 326.823C434.919 328.425 432.858 328.927 428.128 329.873L423.974 321.894Z"/><path fill="#F6F7F6" transform="scale(1.20913 1.20913)" d="M422.165 301.735C424.282 304.556 427.092 305.613 430.076 307.578C427.097 308.27 419.626 309.653 417.615 311.559L413.65 305.792C417.42 305.002 419.912 304.909 422.165 301.735Z"/><path fill="#F6F7F6" transform="scale(1.20913 1.20913)" d="M388.725 279.461C414.091 275.03 413.147 278.967 422.165 301.735C419.912 304.909 417.42 305.002 413.65 305.792C405.448 294.927 398.988 288.215 388.725 279.461Z"/><path fill="#F6F7F6" transform="scale(1.20913 1.20913)" d="M164.736 498.255C150.913 477.512 140.753 459.006 133.488 434.894C103.94 336.829 161.299 229.671 259.503 199.991C307.62 185.445 359.564 190.872 403.638 215.049C450.415 240.27 481.455 282.193 496.628 332.636L479.49 332.641C474.359 315.477 466.549 299.232 456.348 284.506C429.169 245.743 387.655 219.424 341.007 211.384C248.747 195.245 160.145 261.75 145.208 352.915C136.444 406.401 150.49 449.25 181.398 492.759C179.09 494.092 167.518 497.693 164.736 498.255Z"/><path fill="#F6F7F6" transform="scale(1.20913 1.20913)" d="M744.713 348.185C753.048 348.049 761.385 348.051 769.719 348.194C786.376 372.585 800.755 398.092 817.235 422.527C832.508 400.505 849.865 371.361 864.602 348.172C873.128 348.143 881.654 348.242 890.177 348.469C890.961 384.107 890.162 422.559 890.282 458.493L866.157 458.565C866.16 446.25 866.096 433.935 865.966 421.62L865.819 390.838C862.279 397.146 855.457 406.562 851.285 413.057L822.851 458.243L811.771 458.292C798.053 439.422 781.265 410.356 768.409 390.011L768.461 458.527L744.891 458.465C746.224 424.183 744.996 382.977 744.713 348.185Z"/><path fill="#F6F7F6" transform="scale(1.20913 1.20913)" d="M1019.53 348.165L1067.92 348.09C1094.77 347.908 1125.23 342.671 1127.75 378.411C1129.59 404.548 1124.13 422.355 1094.91 424.472C1077.68 424.978 1060.47 424.287 1043.24 424.71C1043.1 435.962 1043.2 447.376 1043.2 458.642C1035.4 458.529 1027.37 458.594 1019.55 458.573L1019.53 348.165ZM1043.25 402.798C1053.01 402.623 1062.77 402.619 1072.53 402.787C1077.9 402.853 1086.47 403.238 1091.46 402.628C1097.61 401.84 1097.81 402.291 1102.25 397.73C1106.36 393.509 1105.55 375.077 1100.89 373.16C1089.74 368.579 1067.81 369.954 1055.53 370.308L1043.19 370.539L1043.25 402.798Z"/><path fill="#F6F7F6" transform="scale(1.20913 1.20913)" d="M698.349 348.181L731.121 348.096L731.21 458.433L706.939 458.444L707.012 378.202C687.201 402.249 667.092 432.853 648.443 458.388C637.811 458.661 626.162 458.418 615.452 458.407L615.44 348.16L639.61 348.162C640.592 372.839 639.633 402.963 639.805 428.145C659.509 401.877 678.864 374.704 698.349 348.181Z"/><path fill="#F6F7F6" transform="scale(1.20913 1.20913)" d="M518.201 348.191C529.86 347.771 568.656 346.86 578.828 349.241C583.732 350.34 588.253 352.732 591.922 356.168C600.045 363.837 603.05 377.001 600.167 387.675C598.563 393.616 595.287 397.641 591.111 401.969C604.333 413.347 606.862 431.399 596.704 446.279C585.715 460.309 566.312 458.495 551.201 458.487C517.847 458.471 491.976 464.448 487.293 422.75C494.953 422.347 503.222 422.516 510.937 422.535C511.813 428.115 512.677 429.659 516.481 433.691C524.696 436.413 567.268 437.605 575.95 432.154C580.507 429.292 580.723 415.771 568.741 414.857C554.209 413.748 538.816 414.362 523.643 414.46L523.655 391.56C532.008 392.036 573.865 394.748 576.779 386.1C583.077 367.411 557.332 370.462 546.602 370.16C536.962 369.889 525.434 370.097 516.256 373.143C512.905 374.199 511.674 380.726 511.102 383.314L488.007 383.341C489.883 362.603 496.469 351.712 518.201 348.191Z"/><path fill="#F6F7F6" transform="scale(1.20913 1.20913)" d="M904.293 348.22C936.682 347.277 973.931 348.139 1006.63 348.1L1006.8 370.544L927.679 370.598C927.867 377.537 927.959 384.479 927.953 391.421L967.059 391.422C973.585 391.422 982.754 391.166 989.078 391.653C988.928 399.103 988.882 406.555 988.941 414.007C974.188 414.021 959.435 414.117 944.684 414.297L927.702 414.364L927.791 435.268L1006.86 435.297L1007.2 458.856C973.633 457.946 937.974 458.517 904.274 458.562L904.293 348.22Z"/><path fill="#F6F7F6" transform="scale(1.20913 1.20913)" d="M192.893 462.246C203.386 479.63 211.571 488.941 226.998 502.395C212.085 510.584 204.539 517.167 193.245 500.17C180.436 507.949 167.989 516.122 155.14 523.813C154.658 523.242 154.162 522.683 153.653 522.135C151.349 519.677 150.46 519.853 147.089 519.749C153.678 514.419 160.663 511.014 167.338 506.258L126.78 519.927C122.567 521.323 107.84 525.931 104.763 527.698C102.549 528.945 100.779 530.85 99.6973 533.15C98.7006 535.259 98.0389 537.56 97.5767 539.84C95.2395 539.965 91.6268 540.051 89.443 540.505C90.9814 518.835 109.432 516.546 126.856 510.707C139.454 506.47 152.081 502.319 164.736 498.255C167.518 497.693 179.09 494.092 181.398 492.759L186.556 490.665C179.285 477.758 182.551 472.193 192.893 462.246Z"/><path fill="#ED6629" transform="scale(1.20913 1.20913)" d="M994.175 473.901C1002.78 473.969 1056.27 471.768 1060.27 475.817C1063.71 479.292 1062.29 500.677 1062.25 505.997C1058.75 511.931 1051.01 522.132 1046.82 528.015C1044.89 529.871 1044.25 530.471 1041.8 530.447C1036.35 526.391 1041.68 505.089 1037.81 500.31C1035.59 497.57 1014.76 498.659 1010.42 498.723C1002.27 492.854 987.235 480.589 980.173 474.052L994.175 473.901Z"/><path fill="#F6F7F6" transform="scale(1.20913 1.20913)" d="M992.1 478.026C1001.05 477.684 1053.11 476.851 1057.49 479.791C1059.29 483.844 1058.54 497.572 1058.46 502.761C1056.17 506.352 1053.12 510.512 1050.64 514.065C1048.09 517.973 1046.21 520.431 1043.32 524.031C1041.24 491.857 1049.73 493.825 1013.27 494.657C1007.43 490.842 997.025 482.839 992.1 478.026Z"/><path fill="#ED6629" transform="scale(1.20913 1.20913)" d="M652.719 473.864C676.758 472.946 705.036 473.596 729.258 473.581C733.981 476.517 759.763 494.604 762.369 497.818L761.973 498.429L759.433 498.697L709.333 498.76C700.069 498.794 688.783 499.127 679.654 498.619C674.115 494.904 652.263 479.447 648.816 474.919C649.667 474.001 651.203 474.084 652.719 473.864Z"/><path fill="#F6F7F6" transform="scale(1.20913 1.20913)" d="M659.945 477.936C681.478 477.379 705.213 477.867 726.923 477.857C734.618 482.916 742.046 488.37 749.178 494.197C729.18 495.178 702.203 494.415 681.683 494.453C674.131 489.362 666.874 483.847 659.945 477.936Z"/><path fill="#ED6629" transform="scale(1.20913 1.20913)" d="M538.831 473.859C565.33 473.253 593.083 473.613 619.676 473.571C624.285 476.463 652.529 495.571 652.947 498.646C638.383 499.181 622.785 498.505 607.987 498.718C601.224 498.816 574.953 499.842 570.116 497.604C565.416 495.43 540.047 477.123 538.831 473.859Z"/><path fill="#F6F7F6" transform="scale(1.20913 1.20913)" d="M551.638 478.058C569.999 476.716 598.212 477.771 617.42 477.858C624.413 482.631 633.29 488.904 639.752 494.249C618.41 494.946 594.586 494.457 573.06 494.453C566.542 489.81 557.247 483.409 551.638 478.058Z"/><path fill="#ED6629" transform="scale(1.20913 1.20913)" d="M755.869 473.844C763.314 473.37 775.655 473.734 783.404 473.725L836.633 473.659C841.886 476.394 865.086 493.41 869.836 497.399L869.929 498.498C844.377 499.355 813.685 499.137 787.92 498.785C783.159 495.531 757.365 477.389 755.869 473.844Z"/><path fill="#F6F7F6" transform="scale(1.20913 1.20913)" d="M769.025 478.039C788.467 476.993 814.959 477.835 834.789 477.86C841.024 481.711 851.16 489.207 856.364 494.191C834.687 494.749 811.682 494.444 789.95 494.453C783.739 490.41 773.947 483.454 769.025 478.039Z"/><path fill="#ED6629" transform="scale(1.20913 1.20913)" d="M870.807 473.883C878.872 473.491 889.781 473.896 898.025 473.956C913.943 474.154 929.862 474.081 945.777 473.739C949.821 476.273 974.627 494.839 977.739 498.153C976.523 498.974 974.178 498.777 972.587 498.804L896.224 499.017C891.246 496.171 869.677 478.893 864.774 474.636C865.906 473.752 869.163 473.932 870.807 473.883Z"/><path fill="#F6F7F6" transform="scale(1.20913 1.20913)" d="M877.045 478.069C898.382 477.103 922.259 477.732 943.737 477.865C948.344 480.897 961.177 490.37 964.226 494.167C946.531 495.567 916.314 494.622 897.969 494.594C891.108 489.706 882.809 484.05 877.045 478.069Z"/><path fill="#F6F7F6" transform="scale(1.20913 1.20913)" d="M140.416 528.495C143.549 531.072 145.884 531.416 147.676 532.845C147.153 541.361 150.155 544.551 156.066 550.317C134.179 565.019 107.232 584.951 91.2363 551.848C94.2259 551.161 96.3893 550.404 99.2924 549.396C99.4722 549.737 99.6573 550.074 99.8475 550.409C111.348 570.535 128.197 557.452 142.568 548.754C138.92 541.281 138.598 536.458 140.416 528.495Z"/><path fill="#F6F7F6" transform="scale(1.20913 1.20913)" d="M839.663 303.042C846.037 301.128 852.756 304.738 854.679 311.111C856.602 317.484 853.002 324.21 846.633 326.142C840.252 328.078 833.512 324.468 831.585 318.083C829.658 311.698 833.277 304.96 839.663 303.042ZM844.672 322.699C851.682 316.248 851.737 307.711 841.011 306.346C835.117 312.959 833.401 321.758 844.672 322.699Z"/><path fill="#F6F7F6" transform="scale(1.20913 1.20913)" d="M596.442 303.075C602.865 301.439 609.396 305.331 611.016 311.76C612.636 318.189 608.73 324.712 602.299 326.317C595.889 327.917 589.394 324.026 587.78 317.619C586.165 311.211 590.04 304.705 596.442 303.075ZM601.536 322.502C608.155 316.068 607.766 306.597 597.468 306.404C590.697 313 590.707 322.578 601.536 322.502Z"/><path fill="#F6F7F6" transform="scale(1.20913 1.20913)" d="M861.746 312.472C861.831 316.763 862.179 322.88 860.408 326.75L859.265 327.08C855.789 323.063 855.119 307.797 857.578 303.374C859.374 302.132 858.527 302.413 860.849 302.524C865.163 304.633 868.65 315.966 870.237 320.571C871.94 316.204 876.359 301.386 881.931 302.423C885.148 305.754 884.682 324.308 881.006 326.698C878.023 325.937 878.672 322.918 878.751 320.173L878.732 312.257L875.255 320.431C873.41 323.541 872.603 324.864 870.283 327.594C866.438 322.523 864.34 318.27 861.746 312.472Z"/><path fill="#F6F7F6" transform="scale(1.20913 1.20913)" d="M795.832 302.626C796.846 302.429 796.806 302.506 797.785 302.892C798.698 305.655 798.317 322.819 797.581 326.272L796.108 326.801C791.172 325.393 793.866 319.746 790.689 317.25C787.555 317.995 785.733 321.929 784.237 324.52C783.061 325.821 781.468 326.854 779.65 326.459C778.547 323.513 781.985 319.597 782.507 317.709C783.115 315.507 778.381 313.804 777.789 310.178C778.523 306.549 780.604 305.077 783.351 302.81L795.832 302.626Z"/><path fill="#F6F7F6" transform="scale(1.20913 1.20913)" d="M991.053 302.517L1004.74 302.567C1004.83 310.001 1004.84 317.435 1004.77 324.869C1003.81 326.618 1004.43 326.067 1002.43 326.797C997.342 325.847 1001.69 321.638 998.803 317.821L994.843 317.423C993.606 320.56 990.8 326.789 986.661 325.569L986.292 324.102C986.729 321.563 988.265 319.738 989.729 317.545C982.681 311.901 983.796 306.61 991.053 302.517ZM998.928 313.315C1000.51 311.29 1000.21 312.155 1000.56 309.898C998.579 306.522 995.929 306.441 992.292 306.647C990.847 308.339 990.429 308.544 990.328 310.625C992.23 313.883 995.463 313.473 998.928 313.315Z"/><path fill="#F6F7F6" transform="scale(1.20913 1.20913)" d="M613.636 302.194C616.692 302.605 618.046 302.954 618.729 306.26C619.569 310.327 618.878 315.338 618.581 319.459C621.243 314.944 626.51 305.717 630.978 303.366C636.861 303.331 635.071 320.876 635.009 325.567L634.595 326.61C632.181 326.66 632.735 326.979 630.858 325.962C628.697 322.635 629.511 315.303 629.634 311.125C626.845 315.62 622.462 324.086 617.7 325.956C611.374 325.294 613.529 307.512 613.636 302.194Z"/><path fill="#F6F7F6" transform="scale(1.20913 1.20913)" d="M566.562 302.664C571.957 302.425 577.35 301.996 582.27 304.579C591.991 309.68 586.124 315.998 578.56 318.345C575.785 318.465 574.32 318.548 571.587 319.032C570.537 320.957 571.291 323.139 570.989 326.122L570.18 326.756C567.761 326.641 568.52 326.978 566.583 325.799C565.756 323.063 565.853 305.842 566.562 302.664ZM570.99 314.261C574.106 314.189 577.544 314.213 580.583 313.685C582.054 311.344 581.825 312.345 581.769 309.853C579.217 306.593 575.278 306.935 571.405 306.876C570.789 309.724 570.925 311.361 570.99 314.261Z"/><path fill="#F6F7F6" transform="scale(1.20913 1.20913)" d="M960.985 302.132C962.46 302.412 963.542 302.316 964.41 303.241C966.908 305.903 965.923 314.667 965.783 318.467C968.733 314.421 974.494 302.393 979.759 303.139C982.694 306.243 982.094 322.934 981.17 327.167C979.624 326.838 979.565 326.783 978.126 326.084C975.425 322.233 976.543 315.327 976.823 310.51C974.551 314.105 967.335 328.067 962.222 325.325C959.33 320.891 960.718 307.609 960.985 302.132Z"/><path fill="#F6F7F6" transform="scale(1.20913 1.20913)" d="M707.444 302.176C710.545 302.708 709.71 302.172 711.765 303.861C712.905 306.22 712.474 308.633 712.347 311.343C722.434 311.888 730.631 312.169 725.102 324.77C719.397 327.447 713.688 326.699 707.346 326.592L707.444 302.176ZM721.538 321.836C721.454 318.613 721.916 319.168 720.385 316.706C718.229 315.346 715.02 315.675 712.319 315.649C712.333 318.013 712.061 319.626 713.379 321.503C715.671 323.153 717.914 322.441 720.743 321.97L721.538 321.836Z"/><path fill="#F6F7F6" transform="scale(1.20913 1.20913)" d="M761.63 302.425C763.636 302.323 764.017 302.183 765.827 302.887C770.433 306.914 774.599 319.98 775.723 326.091L775.077 326.735C769.487 327.422 772.014 323.534 767.914 321.754L763.917 321.689C756.209 321.58 760.797 322.355 756.369 326.663C754.153 326.917 754.978 326.939 752.772 325.992C752.838 323.19 760.093 306.206 761.63 302.425Z"/><path fill="#F6F7F6" transform="scale(1.20913 1.20913)" d="M919.954 302.394C921.106 302.423 924.015 302.365 924.623 303.096C927.585 306.654 933.299 322.151 933.811 325.952L933.128 326.582C927.021 326.85 930.035 323.426 925.737 321.638C912.482 321.179 917.081 326.876 911.369 327.379C909.75 323.968 917.963 306.217 919.954 302.394Z"/><path fill="#F6F7F6" transform="scale(1.20913 1.20913)" d="M886.884 302.446L908.392 302.486C908.502 308.248 909.281 319.933 907.67 325.582C907.448 326.358 906.669 326.423 905.732 326.791L904.438 326.169C902.294 322.78 902.981 315.498 903.068 311.314C902.836 308.482 903.328 309.163 901.702 307.623C899.093 306.566 895.093 307.052 892.148 307.192C892.25 311.339 893.011 324.448 889.625 327.072C885.663 324.663 886.792 306.866 886.884 302.446Z"/><path fill="#F6F7F6" transform="scale(1.20913 1.20913)" d="M745.035 312.188C745.061 308.732 744.728 305.135 747.009 302.443L747.943 302.923C751.3 308.849 750.79 320.64 749.852 327.251C743.163 325.713 744.682 322.653 745.092 316.557L734.319 316.564C734.443 319.721 735.131 323.968 733.072 326.243C730.845 326.544 731.486 326.795 729.91 325.833C728.392 320.754 729.215 308.133 729.406 302.219C732.502 302.723 731.618 302.191 733.677 303.894C734.731 306.194 734.364 309.552 734.299 312.202L745.035 312.188Z"/><path fill="#F6F7F6" transform="scale(1.20913 1.20913)" d="M936.674 302.183C939.786 302.677 938.933 302.142 940.954 303.847C941.993 306.185 941.588 309.393 941.487 312.065L952.435 312.125C952.359 309.034 951.79 305.023 954.22 302.816C959.256 306.189 957.675 322.259 956.581 327.376C950.779 326.123 952.177 321.404 952.349 316.501C948.737 316.459 945.044 316.509 941.424 316.517C941.525 319.687 942.261 324.223 939.962 326.462C937.512 326.303 937.984 326.725 936.655 325.383C935.181 320.058 936.326 308.251 936.674 302.183Z"/><path fill="#F6F7F6" transform="scale(1.20913 1.20913)" d="M686.344 302.42L703.862 302.459C703.965 308.033 705 321.92 701.572 325.771L700.585 325.536C698.114 321.281 698.564 312.213 698.507 307.162L691.114 307.177C690.907 312.933 690.886 325.809 683.032 326.54C681.289 325.615 681.892 326.288 681.162 324.455C682 321.754 682.38 322.088 684.798 319.89C686.432 313.714 686.277 308.744 686.344 302.42Z"/><path fill="#F6F7F6" transform="scale(1.20913 1.20913)" d="M815.212 312.743C817.573 310.04 824.873 301.745 828.809 303.361C828.825 306.548 823.806 310.716 821.541 312.956C823.698 315.513 826.21 319.063 828.264 321.795C829.615 323.408 829.838 323.564 830.576 325.485C829.706 326.7 830.002 326.311 828.062 326.715C823.625 325.902 821.778 320.748 817.832 316.877L817.25 316.311C816.231 319.808 815.587 324.476 812.12 326.016L811.076 325.233C808.977 319.907 809.903 308.311 810.053 302.101C817.01 302.869 815.483 307.069 815.212 312.743Z"/><path fill="#F6F7F6" transform="scale(1.20913 1.20913)" d="M660.497 302.446C663.789 302.334 678.279 300.875 678.508 305.657C674.301 308.209 666.329 304.296 664.669 310.908C667.615 312.65 676.109 311.794 677.221 314.553C674.258 317.223 670.596 316.523 666.504 316.459L665.412 316.589C664.553 318.057 665.226 320.566 665.49 322.402C669.913 322.276 674.864 321.733 678.771 323.91L678.453 324.726C673.149 327.427 666.042 326.763 660.113 326.641C660.045 318.793 660.355 310.336 660.497 302.446Z"/><path fill="#F6F7F6" transform="scale(1.20913 1.20913)" d="M528.174 302.349C533.256 302.176 543.847 304.795 540.823 311.692C537.086 312.424 533.562 305.503 530.794 306.38C521.77 309.237 522.058 326.691 535.601 321.573C536.962 319.282 536.582 319.106 538.75 318.002L539.998 318.571L540.441 320.263C539.43 325.881 534.551 328.209 529.532 326.858C515.012 322.95 517.791 308.637 528.174 302.349Z"/><path fill="#F6F7F6" transform="scale(1.20913 1.20913)" d="M636.94 302.429L637.822 302.407C642.962 302.283 655 301.606 658.909 305.332C656.215 307.268 653.106 307.145 649.926 307.202C649.888 311.214 649.889 315.226 649.929 319.238C650 321.813 650.298 323.654 649.249 325.971C647.374 327.009 648.181 326.775 645.753 326.421C643.883 323.727 644.659 311.386 644.736 307.287C642.451 307.304 640.9 307.439 638.664 306.888C637.004 305.164 637.419 305.05 636.94 302.429Z"/><path fill="#F6F7F6" transform="scale(1.20913 1.20913)" d="M543.035 302.619C549.967 302.39 557.212 301.859 563.806 304.428L563.81 305.849C561.191 306.906 558.73 306.835 555.908 306.969L556.061 318.275C556.175 320.828 556.532 323.586 555.42 325.791C553.514 326.917 554.361 326.662 551.953 326.441C550.334 323.281 550.994 311.451 551.061 307.169C548.608 307.212 546.808 307.433 544.498 306.624C542.891 304.872 543.394 305.45 543.035 302.619Z"/><path fill="#F6F7F6" transform="scale(1.20913 1.20913)" d="M147.089 519.749C150.46 519.853 151.349 519.677 153.653 522.135C154.162 522.683 154.658 523.242 155.14 523.813C151.082 526.718 149.522 528.101 147.676 532.845C145.884 531.416 143.549 531.072 140.416 528.495C142.187 524.419 143.744 522.594 147.089 519.749Z"/><path fill="#F6F7F6" transform="scale(1.20913 1.20913)" d="M97.5767 539.84C97.8184 543.912 98.2323 545.404 99.2924 549.396C96.3893 550.404 94.2259 551.161 91.2363 551.848C89.8544 547.499 89.6898 545.054 89.443 540.505C91.6268 540.051 95.2395 539.965 97.5767 539.84Z"/><defs><linearGradient id="gradient_0" gradientUnits="userSpaceOnUse" x1="878.2771" y1="320.59988" x2="875.66479" y2="317.31949"><stop offset="0" stop-color="white" stop-opacity="0"/><stop offset="1" stop-color="#F6F7F6" stop-opacity="0.043137256"/></linearGradient></defs><path fill="url(#gradient_0)" transform="scale(1.20913 1.20913)" d="M878.732 312.257L878.751 320.173C878.229 321.075 878.265 321.01 877.355 321.529L875.255 320.431L878.732 312.257Z"/></svg>